<?xml version="1.0" encoding="UTF-8"?>
<svg xmlns="http://www.w3.org/2000/svg" xmlns:xlink="http://www.w3.org/1999/xlink" width="454px" height="321px" viewBox="0 0 454 321" version="1.1">
  <title>4312AB2F-F889-4BBE-9871-5B63EFCF8111</title>
  <g id="Homepage" stroke="none" stroke-width="1" fill="none" fill-rule="evenodd" opacity="0.400000006" stroke-dasharray="4,7" stroke-linecap="round" stroke-linejoin="round">
    <g id="Happy-Hunny-Home" transform="translate(0.000000, -113.000000)" stroke="#C98E60" stroke-width="2">
      <path d="M452.397072,135.518853 C417.134338,154.60849 373.026763,162.320664 339.255249,148.908234 C287.061218,128.17926 332.396973,85.8378296 350.969458,145.702823 C360.589254,176.710468 331.001181,214.559306 302.364939,227.16844 C264.694514,243.755513 216.277846,229.743941 176.702356,232.146876 C167.786097,232.688251 79.9035599,231.017132 125.50426,335.221511 C133.608215,353.740251 149.120329,376.661316 126.793457,400.463013 C104.466585,424.26471 57.1770478,417.305695 37.2677002,419.703003 C4.90837652,423.599428 -27.3065208,442.607258 -24.5658618,483.217789 C-24.5208909,483.884159 -23.2300905,483.217789 -22.5622048,483.217789" id="header-beetrail"></path>
    </g>
  </g>
</svg>
