<?xml version="1.0" encoding="UTF-8"?>
<svg xmlns="http://www.w3.org/2000/svg" xmlns:xlink="http://www.w3.org/1999/xlink" width="233px" height="64px" viewBox="0 0 233 64" version="1.1">
  <title>912D6603-7F56-454A-A548-3CB57AF860B8</title>
  <g id="Homepage" stroke="none" stroke-width="1" fill="none" fill-rule="evenodd">
    <g id="Happy-Hunny-Home" transform="translate(-584.000000, -85.000000)" fill="#000000">
      <g id="Header" transform="translate(150.000000, 67.050497)">
        <g id="header-logo" transform="translate(434.000000, 17.949503)">
          <path d="M52.6217376,25.63394 C56.1790925,25.255498 59.1041339,22.037164 58.9527571,18.912915 C58.8749662,17.3071645 57.5914171,16.451465 56.0902638,17.0585491 C54.6385181,17.6456598 53.6093661,18.7420904 52.77364,20.0314214 C52.68376,20.1696578 52.6290962,20.3567764 52.6280449,20.5218191 C52.6175327,22.1990531 52.6217376,23.8762871 52.6217376,25.63394 M47.5700623,18.9139662 C47.6231493,17.4401448 47.5700623,12.0809854 51.2493597,12.6065993 C51.6540824,12.6644168 52.3005875,13.6578271 52.3005875,13.6578271 C53.8774292,12.0809854 55.2944843,11.8050381 56.7015527,11.6636479 C59.6465675,11.3677273 60.952718,12.3732267 62.0270729,14.5660879 C64.0622499,18.7221171 64.2498941,25.0011009 58.6105825,28.6441309 C57.1173133,29.609158 55.4668857,30.3555298 53.8264447,31.0572243 C52.9760013,31.4209491 52.6369804,31.9060908 52.6417109,32.7754562 C52.6538,34.9210122 52.6317242,37.0665681 52.6364548,39.2115985 C52.644339,42.9749941 52.6685172,46.7383897 52.6727221,50.5017853 C52.6737733,51.5104384 52.4361959,52.4013539 51.3045491,52.7309139 C50.485117,52.9700682 49.7939347,52.8244731 49.223118,52.138547 C48.1019836,50.7913985 47.771898,49.2071982 47.7566552,47.5136702 C47.6977865,41.112744 47.6336616,34.7118178 47.5747928,28.310366 C47.5658574,27.3321985 47.3787388,24.2026933 47.5700623,18.9139662" id="Fill-1"></path>
          <path d="M71.0182244,25.63394 C74.5755793,25.255498 77.5006207,22.037164 77.3492439,18.912915 C77.2714531,17.3071645 75.9879039,16.451465 74.4867506,17.0585491 C73.035005,17.6456598 72.0058529,18.7420904 71.1701268,20.0314214 C71.0802468,20.1696578 71.025583,20.3567764 71.0245318,20.5218191 C71.0140195,22.1990531 71.0182244,23.8762871 71.0182244,25.63394 M65.9665491,18.9139662 C66.0196361,17.4401448 65.9665491,12.0809854 69.6458465,12.6065993 C70.0505692,12.6644168 70.6970743,13.6578271 70.6970743,13.6578271 C72.273916,12.0809854 73.6909711,11.8050381 75.0980396,11.6636479 C78.0430543,11.3677273 79.3492049,12.3732267 80.4235597,14.5660879 C82.4587367,18.7221171 82.6463809,25.0011009 77.0070693,28.6441309 C75.5138002,29.609158 73.8633725,30.3555298 72.2229315,31.0572243 C71.3724882,31.4209491 71.0334672,31.9060908 71.0381977,32.7754562 C71.0502868,34.9210122 71.0282111,37.0665681 71.0329416,39.2115985 C71.0408258,42.9749941 71.065004,46.7383897 71.0692089,50.5017853 C71.0702602,51.5104384 70.8326827,52.4013539 69.7010359,52.7309139 C68.8816039,52.9700682 68.1904216,52.8244731 67.6196049,52.138547 C66.4984704,50.7913985 66.1683849,49.2071982 66.153142,47.5136702 C66.0942733,41.112744 66.0301484,34.7118178 65.9712796,28.310366 C65.9623442,27.3321985 65.7752256,24.2026933 65.9665491,18.9139662" id="Fill-3"></path>
          <path d="M97.7206725,41.7190922 C97.483095,41.6833505 97.3485378,41.6386733 97.2192368,41.6497112 C96.9753519,41.6696845 96.7267365,41.6943884 96.4938896,41.764295 C91.9946345,43.1124947 89.0396331,46.06224 87.8953716,50.5883013 C87.5547738,51.9359754 87.7807878,53.5327904 88.1240137,54.9230392 C88.6180908,56.9235258 90.1539346,57.3734513 91.8380016,56.1913456 C92.4035621,55.7939815 92.9507262,55.3030581 93.3438854,54.7411768 C94.1864445,53.537521 95.0368878,52.3154686 95.679188,51.0009082 C97.0999224,48.0942633 97.6833539,44.9794753 97.7206725,41.7190922 M102.839626,41.9976676 C102.660918,43.2580898 102.521104,44.4028768 102.332409,45.5392541 C101.424674,51.0124718 99.2281331,55.8297232 94.9538408,59.501662 C93.9882881,60.3310807 92.8109129,61.0007129 91.6230255,61.4664068 C88.9660472,62.5071223 86.6007846,61.6272446 85.0539029,59.2209842 C82.40586,55.101748 82.5977091,48.6887327 85.6283989,44.4459772 C88.5024557,40.4229283 92.2742611,37.6256111 97.1645729,36.4624275 C97.5151574,36.3788549 98.043925,35.9746578 98.0549629,35.7018642 C98.1574576,33.2178129 98.1669187,30.7295566 98.1910969,28.2428772 C98.1926737,28.0520794 98.0985889,27.8607559 98.0186955,27.5527461 C97.4610192,27.9637762 96.9937484,28.3190912 96.5149141,28.6586378 C93.4537387,30.828372 90.1923044,30.2496711 88.1350516,27.1007182 C86.2328549,24.1888171 85.3403624,20.9021534 84.8257864,17.504585 C84.6633717,16.4297046 84.5619282,15.3369533 84.5503647,14.2510349 C84.5345963,12.7751111 85.3072488,11.8715808 86.5645172,11.7207296 C87.7797366,11.5756601 88.9555349,12.4056045 89.269852,13.7385614 C89.5915277,15.1056832 89.7392252,16.5174821 90.1066294,17.8704123 C90.6122699,19.7321368 91.1741512,21.5865027 91.8585005,23.3883071 C92.497647,25.0707973 93.8710762,25.302593 94.9927363,23.9007807 C95.6303059,23.1044756 96.1469844,22.1052836 96.3840363,21.1176551 C96.8670755,19.105605 97.1025505,17.0352118 97.4846718,14.9974067 C97.6392023,14.1727185 97.83841,13.3411973 98.1453685,12.5638143 C98.7261719,11.0968259 99.8021035,10.4697685 101.079345,10.7309986 C102.378137,10.9964336 102.959992,11.7869569 102.983119,13.4757544 C103.079832,20.5084685 103.188634,27.5417083 103.207556,34.574948 C103.21071,35.7938466 103.430942,36.5743833 104.624086,37.1157656 C105.461388,37.4957845 106.200402,38.1733008 106.861624,38.8392536 C107.730464,39.7144008 107.818767,40.864444 107.249527,41.7385399 C106.639289,42.6741327 105.927082,42.857572 104.562589,42.4523236 C104.033821,42.2951651 103.495592,42.1695433 102.839626,41.9976676" id="Fill-5"></path>
          <path d="M222.291169,43.8215479 C222.053591,43.7858061 221.919034,43.7411289 221.789733,43.7521668 C221.545848,43.7721402 221.297233,43.796844 221.064386,43.8667507 C216.565131,45.2149503 213.61013,48.1646956 212.465868,52.690757 C212.12527,54.038431 212.351284,55.6352461 212.69451,57.0254949 C213.188587,59.0259814 214.724431,59.4759069 216.408498,58.2938012 C216.974059,57.8964371 217.521223,57.4055137 217.914382,56.8436325 C218.756941,55.6399766 219.607384,54.4179243 220.249685,53.1033639 C221.670419,50.196719 222.25385,47.0819309 222.291169,43.8215479 M227.410123,44.1001232 C227.230888,45.3605454 227.091601,46.5053325 226.902905,47.6417098 C225.99517,53.1149274 223.79863,57.9321789 219.524337,61.6041176 C218.558785,62.4335364 217.381409,63.1031685 216.193522,63.5688624 C213.536544,64.609578 211.171281,63.7297003 209.624399,61.3234398 C206.976356,57.2042036 207.168206,50.7911883 210.198895,46.5484328 C213.072952,42.525384 216.844758,39.7280667 221.735069,38.5648832 C222.085654,38.4813105 222.614421,38.0771134 222.625459,37.8043198 C222.727954,35.3202685 222.737415,32.8320122 222.761593,30.3453328 C222.76317,30.154535 222.669085,29.9632115 222.589192,29.6552018 C222.031516,30.0662319 221.564245,30.4215469 221.085411,30.7610934 C218.024235,32.9308277 214.762801,32.3521267 212.705548,29.2031738 C210.803351,26.2912728 209.910859,23.004609 209.396283,19.6070407 C209.233868,18.5321602 209.132425,17.4394089 209.120861,16.3534906 C209.105093,14.8775667 209.877745,13.9740364 211.135014,13.8231852 C212.350233,13.6781158 213.526031,14.5080601 213.840348,15.841017 C214.162024,17.2081388 214.309722,18.6199378 214.677126,19.972868 C215.182766,21.8345924 215.744648,23.6889583 216.428997,25.4907628 C217.068144,27.1732529 218.441573,27.4050486 219.563233,26.0032363 C220.200802,25.2069313 220.717481,24.2077392 220.954533,23.2201107 C221.437572,21.2080606 221.673047,19.1376675 222.055168,17.0998623 C222.209699,16.2751741 222.408906,15.4436529 222.715865,14.6662699 C223.296668,13.1992815 224.3726,12.5722241 225.649842,12.8334542 C226.948634,13.0988893 227.530488,13.8894126 227.553615,15.5782101 C227.650328,22.6109242 227.75913,29.6441639 227.778053,36.6774036 C227.781206,37.8963023 228.001438,38.6768389 229.194582,39.2182212 C230.031885,39.5982401 230.770898,40.2757564 231.43212,40.9417093 C232.30096,41.8168564 232.389263,42.9668996 231.820023,43.8409956 C231.209786,44.7765883 230.497579,44.9600276 229.133085,44.5547793 C228.604318,44.3976207 228.066089,44.271999 227.410123,44.1001232" id="Fill-7"></path>
          <path d="M26.2303478,24.9586313 C26.0400756,26.6379677 27.0008978,27.1089178 28.3690708,26.5486133 C30.6260569,25.6240585 32.3274692,24.1702104 33.3182514,21.8317541 C33.411285,21.699825 33.4149643,21.4301851 33.348737,21.2719753 C32.721154,19.7834367 30.5188317,19.0023744 29.2484229,19.946377 C27.4834114,21.2577837 26.4358629,23.1447377 26.2303478,24.9586313 M34.2175768,27.9966797 C32.8530831,29.4263495 31.3224954,30.1911177 29.6993996,31.0031912 C26.5457162,32.5800329 23.3068833,31.0730979 22.5820617,30.1038658 C21.2895771,28.3751217 21.220196,25.3050108 22.1825951,22.4209673 C22.9494658,20.1219321 24.2456297,18.109882 25.9449395,16.3890221 C26.5783042,15.7477731 27.317843,15.1606624 28.1094175,14.7359663 C30.3464303,13.5344129 32.5876481,13.3630628 34.7221661,15.1196645 C34.8409549,14.9903635 34.9565899,14.9067909 35.0154587,14.7937839 C35.4827295,13.8955097 36.1739118,13.3698958 37.2235627,13.5433484 C38.3268263,13.7257364 38.9749083,14.4684289 39.1646549,15.5080932 C39.3065707,16.2875786 39.2487531,17.1080619 39.2403433,17.9096231 C39.2235237,19.5547947 39.0237904,21.215209 39.1856795,22.8409328 C39.4038092,25.0316916 40.5296742,25.8831861 42.7193818,25.894224 C43.4925598,25.8979033 44.2673147,25.8647896 45.0383903,25.9047363 C46.1621529,25.9630794 46.6567556,29.5856105 45.4678169,30.4775773 C43.3653613,32.054419 38.6348361,32.054419 35.9873188,29.9929613 C35.3634151,29.3879797 34.8283401,28.69049 34.2175768,27.9966797" id="Fill-9"></path>
          <path d="M4.67844302,17.3765455 C5.4374295,16.8393681 6.06185883,16.3468678 6.73306779,15.9311072 C9.7868846,14.040474 12.6767099,14.6065602 14.4916547,17.7181945 C15.4498489,19.3602124 16.5037047,25.4715253 17.1228779,27.2933031 C17.7893564,29.2548942 18.3191752,31.226472 19.7751257,32.8490421 C20.9214897,34.1268096 19.7046935,36.366976 17.8014455,36.7117788 C16.3029202,36.9835211 14.924235,36.1788063 14.2719481,34.5026235 C13.3552774,32.1457707 12.0018216,25.5498418 11.1356099,23.1735413 C10.9311461,22.6127113 10.7655777,22.0334847 10.5153855,21.4942049 C10.028667,20.4461307 8.97270866,20.3010613 8.25787374,21.2077453 C7.93987733,21.6108911 7.71386335,22.1149549 7.55144865,22.6074551 C6.75882287,25.0089851 6.00561814,27.4231298 5.22823517,29.8293902 C5.05583381,30.363414 4.88711174,30.9068987 4.63481707,31.4046551 C4.21800524,32.225664 3.50947769,32.6897811 2.58124352,32.6020036 C1.66036795,32.5147517 0.980749168,31.980728 0.795733072,31.0551219 C0.597576629,30.0606604 0.43779,29.0420206 0.417816672,28.0307394 C0.255927588,19.7355007 0.128203408,11.4392108 0.00100484178,3.14344645 C-0.00687936686,2.65515113 0.0309648346,2.15371546 0.138190072,1.67856048 C0.379446856,0.611038634 1.30873225,-0.0538629615 2.39044567,0.00342895458 C3.39909876,0.0565159594 4.23061997,0.804464552 4.32785854,1.89301096 C4.43140448,3.04673349 4.43876308,4.21044268 4.45348027,5.36994697 C4.5002599,9.06028222 4.52969428,12.7506175 4.5717434,16.4409527 C4.57489708,16.7063878 4.63061215,16.9712972 4.67844302,17.3765455" id="Fill-11"></path>
          <path d="M132.402623,18.9533872 C133.161609,18.4162098 133.786039,17.9237096 134.457248,17.507949 C137.511065,15.6173157 140.40089,16.1834019 142.215835,19.2950363 C143.174029,20.9370541 144.227885,27.048367 144.847058,28.8701448 C145.513536,30.831736 146.043355,32.8033137 147.499306,34.4258839 C148.64567,35.7036513 147.428873,37.9438178 145.525625,38.2886205 C144.0271,38.5603629 142.648415,37.755648 141.996128,36.0794652 C141.079457,33.7226125 139.726002,27.1266835 138.85979,24.750383 C138.655326,24.189553 138.489758,23.6103265 138.239565,23.0710466 C137.752847,22.0229725 136.696889,21.877903 135.982054,22.784587 C135.664057,23.1877329 135.438043,23.6917966 135.275629,24.1842968 C134.483003,26.5858268 133.729798,28.9999715 132.952415,31.406232 C132.780014,31.9402557 132.611292,32.4837405 132.358997,32.9814968 C131.942185,33.8025058 131.233658,34.2666229 130.305423,34.1788453 C129.384548,34.0915934 128.704929,33.5575697 128.519913,32.6319636 C128.321757,31.6375021 128.16197,30.6188623 128.141997,29.6075812 C127.980108,21.3123424 127.852383,13.0160525 127.725185,4.72028818 C127.717301,4.23199285 127.755145,3.73055718 127.86237,3.25540221 C128.103627,2.18788036 129.032912,1.52297877 130.114626,1.58027068 C131.123279,1.63335769 131.9548,2.38130628 132.052038,3.46985269 C132.155584,4.62357522 132.162943,5.78728441 132.17766,6.94678869 C132.22444,10.637124 132.253874,14.3274592 132.295923,18.0177945 C132.299077,18.2832295 132.354792,18.5481389 132.402623,18.9533872" id="Fill-13"></path>
          <path d="M173.149475,18.0805002 C173.51793,17.6521249 173.814376,17.2668499 174.152346,16.9225728 C175.086888,15.9701604 175.762301,15.4461233 176.871347,14.7092126 C178.707316,13.4882115 181.195572,14.6251144 182.6531,16.8116682 C183.704328,18.38851 185.052527,24.9797084 186.289297,28.6400836 C186.850652,30.3010236 186.117947,31.6166352 184.614165,32.0891621 C183.203943,32.531729 182.056528,32.1091354 181.495172,30.7351807 C180.605834,28.5596647 179.499416,19.9653517 177.879474,20.25076 C175.831682,20.6118568 174.252213,26.6842743 173.281929,29.1325839 C172.772084,30.4198123 171.907449,31.2187455 170.569762,31.5335882 C169.306186,31.8310857 168.406335,31.2313602 168.24392,29.9530672 C168.186103,29.5005136 168.158771,29.0432295 168.13722,28.5869966 C167.96114,24.7994228 167.787162,21.0113234 167.618439,17.2232239 C167.596889,16.7328261 167.580595,16.2382235 167.616863,15.7499281 C167.697282,14.6545487 168.340633,14.0201328 169.381874,13.8072591 C170.404719,13.5980648 171.328748,13.8582437 171.81862,14.8201171 C172.324786,15.8130018 172.671166,16.886831 173.149475,18.0805002" id="Fill-15"></path>
          <path d="M194.174031,18.0805002 C194.542486,17.6521249 194.838933,17.2668499 195.176902,16.9225728 C196.111444,15.9701604 196.786858,15.4461233 197.895903,14.7092126 C199.731873,13.4882115 202.220129,14.6251144 203.677656,16.8116682 C204.728884,18.38851 206.077084,24.9797084 207.313853,28.6400836 C207.875209,30.3010236 207.142503,31.6166352 205.638722,32.0891621 C204.228499,32.531729 203.081084,32.1091354 202.519729,30.7351807 C201.63039,28.5596647 200.523973,19.9653517 198.904031,20.25076 C196.856239,20.6118568 195.276769,26.6842743 194.306486,29.1325839 C193.79664,30.4198123 192.932005,31.2187455 191.594318,31.5335882 C190.330742,31.8310857 189.430891,31.2313602 189.268476,29.9530672 C189.210659,29.5005136 189.183327,29.0432295 189.161777,28.5869966 C188.985696,24.7994228 188.811718,21.0113234 188.642996,17.2232239 C188.621446,16.7328261 188.605152,16.2382235 188.641419,15.7499281 C188.721838,14.6545487 189.365189,14.0201328 190.406431,13.8072591 C191.429275,13.5980648 192.353304,13.8582437 192.843177,14.8201171 C193.349343,15.8130018 193.695722,16.886831 194.174031,18.0805002" id="Fill-17"></path>
          <path d="M159.100708,16.811458 C159.129092,15.1584022 159.247355,13.2940497 160.224471,12.9187614 C161.234175,12.5303327 162.320619,12.7794737 162.673306,13.6567233 C163.730841,16.2858441 164.186549,21.2707664 163.281441,25.5061633 C162.699061,28.2298945 161.267289,30.4395754 158.884681,31.9559715 C155.917591,33.8445023 152.9074,33.2899796 150.786548,30.5031747 C149.298535,28.5489422 148.31879,26.3434662 148.23259,23.9093482 C148.121685,20.7577672 148.2841,20.749883 148.345071,17.5930459 C148.350853,17.2829337 148.450194,16.9691422 148.540074,16.6669142 C148.906427,15.4369776 149.717449,14.7867932 150.799162,14.8367265 C151.98705,14.8913904 152.925796,15.6656197 152.989921,16.9859618 C152.692949,25.2212805 153.218563,27.3237362 155.456102,27.4924582 C156.638207,27.5208414 157.652116,27.0519938 158.135156,25.9618705 C158.525687,25.080416 158.824761,24.0917362 158.86681,23.1351189 C158.936717,21.5545979 159.073376,18.3930302 159.100708,16.811458" id="Fill-19"></path>
        </g>
      </g>
    </g>
  </g>
</svg>
