<?xml version="1.0" encoding="UTF-8"?>
<svg xmlns="http://www.w3.org/2000/svg" xmlns:xlink="http://www.w3.org/1999/xlink" width="24px" height="24px" viewBox="0 0 24 24" version="1.1">
  <title>2EFDE987-C448-4B28-A767-331AF7E420A1</title>
  <g id="Homepage" stroke="none" stroke-width="1" fill="none" fill-rule="evenodd">
    <g id="Happy-Hunny-Home" transform="translate(-1146.000000, -105.000000)">
      <g id="Header" transform="translate(150.000000, 67.050497)">
        <g id="nav" transform="translate(0.000000, 40.000000)">
          <g id="icon-account" transform="translate(998.000000, 0.000000)">
            <path d="M20,10 C20,15.523 15.523,20 10,20 C4.477,20 0,15.523 0,10 C0,4.477 4.477,0 10,0 C15.523,0 20,4.477 20,10 Z" id="Stroke-3" stroke="#000000" stroke-width="3" stroke-linecap="round" stroke-linejoin="round"></path>
            <path d="M2.6238,16.4108 C4.3118,14.1808 6.9878,12.7408 9.9998,12.7408 C13.0948,12.7408 15.8338,14.2608 17.5118,16.5948" id="Stroke-5" stroke="#000000" stroke-width="3" stroke-linecap="round" stroke-linejoin="round"></path>
            <path d="M13.189,6.811 C13.189,8.572 11.761,10 10,10 C8.239,10 6.811,8.572 6.811,6.811 C6.811,5.05 8.239,3.622 10,3.622 C11.761,3.622 13.189,5.05 13.189,6.811" id="Fill-7" fill="#000000"></path>
          </g>
        </g>
      </g>
    </g>
  </g>
</svg>
