<?xml version="1.0" encoding="UTF-8"?>
<svg xmlns="http://www.w3.org/2000/svg" xmlns:xlink="http://www.w3.org/1999/xlink" width="23px" height="22px" viewBox="0 0 23 22" version="1.1">
  <title>933B807C-436C-4BC8-B725-B7FBE28F94FF</title>
  <g id="Homepage" stroke="none" stroke-width="1" fill="none" fill-rule="evenodd">
    <g id="Happy-Hunny-Home" transform="translate(-150.000000, -107.000000)">
      <g id="Header" transform="translate(150.000000, 67.050497)">
        <g id="icon-search" transform="translate(0.000000, 40.000000)">
          <g id="Group-5" fill="#000000">
            <path d="M9.265,0 C4.148,0 0,4.148 0,9.265 C0,14.381 4.148,18.529 9.265,18.529 C14.382,18.529 18.53,14.381 18.53,9.265 C18.53,4.148 14.382,0 9.265,0 M9.265,3 C12.719,3 15.53,5.81 15.53,9.265 C15.53,12.719 12.719,15.529 9.265,15.529 C5.811,15.529 3,12.719 3,9.265 C3,5.81 5.811,3 9.265,3" id="Fill-3"></path>
          </g>
          <line x1="16.2057" y1="15.352" x2="20.8537" y2="20" id="Stroke-6" stroke="#000000" stroke-width="3" stroke-linecap="round" stroke-linejoin="round"></line>
        </g>
      </g>
    </g>
  </g>
</svg>
