<?xml version="1.0" encoding="UTF-8"?>
<svg xmlns="http://www.w3.org/2000/svg" xmlns:xlink="http://www.w3.org/1999/xlink" width="22px" height="24px" viewBox="0 0 22 24" version="1.1">
  <title>CF46F9F7-F439-4233-B7C9-8A5FCF5D4145</title>
  <g id="Homepage" stroke="none" stroke-width="1" fill="none" fill-rule="evenodd">
    <g id="Happy-Hunny-Home" transform="translate(-1228.000000, -105.000000)" stroke="#000000">
      <g id="Header" transform="translate(150.000000, 67.050497)">
        <g id="nav" transform="translate(0.000000, 40.000000)">
          <g id="icon-bag" transform="translate(1079.946178, 0.000000)">
            <path d="M13.278196,5.9614 L0.73819603,5.9614 C0.52719603,5.9614 0.32619603,6.0514 0.18619603,6.2094 C0.0461960304,6.3674 -0.0198039696,6.5784 0.00519603037,6.7874 L1.26319603,17.3704 C1.42919603,18.8694 2.69219603,19.9994 4.20019603,19.9994 L13.532196,19.9994 C15.040196,19.9994 16.303196,18.8694 16.468196,17.3764 L17.727196,6.7874 C17.752196,6.5784 17.686196,6.3674 17.546196,6.2094 C17.406196,6.0514 17.204196,5.9614 16.993196,5.9614 L13.299196,5.9614 L13.278196,5.9614 Z" id="Stroke-3" stroke-width="3" stroke-linecap="round" stroke-linejoin="round"></path>
            <path d="M12.560396,5.532 L12.560396,3.694 C12.560396,1.654 10.906396,0 8.86639603,0 L8.86639603,0 C6.82539603,0 5.17139603,1.654 5.17139603,3.694 L5.17139603,5.532" id="Stroke-5" stroke-width="3" stroke-linecap="round" stroke-linejoin="round"></path>
            <path d="M5.17179603,10.3946 C4.76379603,10.3946 4.43279603,10.0636 4.43279603,9.6556 C4.43279603,9.2476 4.76379603,8.9166 5.17179603,8.9166 C5.57979603,8.9166 5.91079603,9.2476 5.91079603,9.6556 C5.91079603,10.0636 5.57979603,10.3946 5.17179603,10.3946 Z" id="Stroke-7" stroke-width="1.5"></path>
            <path d="M12.560396,10.3946 C12.152396,10.3946 11.821396,10.0636 11.821396,9.6556 C11.821396,9.2476 12.152396,8.9166 12.560396,8.9166 C12.968396,8.9166 13.299396,9.2476 13.299396,9.6556 C13.299396,10.0636 12.968396,10.3946 12.560396,10.3946 Z" id="Stroke-9" stroke-width="1.5"></path>
          </g>
        </g>
      </g>
    </g>
  </g>
</svg>
